<?xml version="1.0" encoding="UTF-8"?>
<svg xmlns="http://www.w3.org/2000/svg" xmlns:se="https://standardebooks.org/vocab/1.0" version="1.1" viewBox="0 0 1400 340" se:generated-from="9f69c56940cd912a920abeeff64e4c1057658319">
	<path d="M 173.10672,52.807016 173.10672,130 195.46929,130 C 216.70906,130 234.39327,113.90643 234.39327,91.356724 234.39327,68.900584 216.61549,52.807016 195.46929,52.807016 L 173.10672,52.807016 Z M 190.69736,114.2807 190.69736,68.526315 193.41081,68.526315 C 206.51023,68.526315 215.39911,78.538011 215.39911,91.450292 215.30555,104.36257 206.41666,114.2807 193.41081,114.2807 L 190.69736,114.2807 Z"/>
	<path d="M 286.39034,52.807016 270.10964,52.807016 238.95175,130 257.85233,130 263.55993,114.5614 292.94005,114.5614 298.64765,130 317.54824,130 286.39034,52.807016 Z M 286.95175,99.122806 269.54824,99.122806 278.15643,76.666666 278.34356,76.666666 286.95175,99.122806 Z"/>
	<path d="M 341.75,130 355.59795,130 387.97222,52.807016 368.13596,52.807016 348.67397,103.52047 329.21199,52.807016 309.37573,52.807016 341.75,130 Z"/>
	<path d="M 413.48246,52.807016 395.89181,52.807016 395.89181,130 413.48246,130 413.48246,52.807016 Z"/>
	<path d="M 429.76608,52.807016 429.76608,130 452.12865,130 C 473.36842,130 491.05263,113.90643 491.05263,91.356724 491.05263,68.900584 473.27485,52.807016 452.12865,52.807016 L 429.76608,52.807016 Z M 447.35672,114.2807 447.35672,68.526315 450.07017,68.526315 C 463.16959,68.526315 472.05848,78.538011 472.05848,91.450292 471.96491,104.36257 463.07602,114.2807 450.07017,114.2807 L 447.35672,114.2807 Z"/>
	<path d="M 572.58188,114.09357 C 554.89767,114.09357 547.13159,101.74269 547.13159,91.356724 547.13159,81.064327 554.89767,68.713449 572.58188,68.713449 581.56434,68.713449 587.73978,73.485379 587.73978,73.485379 L 595.22516,58.514619 C 595.22516,58.514619 586.61697,51.403507 569.86843,51.403507 547.97369,51.403507 528.04387,69.36842 528.04387,91.543859 528.04387,113.62573 548.06726,131.40351 569.86843,131.40351 586.61697,131.40351 595.22516,124.2924 595.22516,124.2924 L 587.73978,109.32164 C 587.73978,109.32164 581.56434,114.09357 572.58188,114.09357 Z"/>
	<path d="M 603.58479,91.356724 C 603.58479,113.90643 619.67836,131.40351 642.50877,131.40351 664.68421,131.40351 681.33918,113.90643 681.33918,91.356724 681.33918,68.807016 663.93567,51.403507 642.50877,51.403507 621.269,51.403507 603.58479,68.807016 603.58479,91.356724 Z M 622.57894,91.356724 C 622.57894,79.847952 628.94152,68.33918 642.50877,68.33918 656.16959,68.33918 662.34503,79.847952 662.34503,91.356724 662.34503,102.8655 656.54386,114.37427 642.50877,114.37427 628.09941,114.37427 622.57894,102.8655 622.57894,91.356724 Z"/>
	<path d="M 694.10086,52.807016 694.10086,130 711.6915,130 711.6915,101.36842 722.2646,101.36842 C 737.32893,101.36842 748.65057,92.479532 748.65057,76.573098 748.65057,60.573098 737.32893,52.807016 722.2646,52.807016 L 694.10086,52.807016 Z M 711.6915,87.333333 711.6915,66.842104 716.65057,66.842104 C 723.57454,66.842104 730.12425,69.181285 730.12425,77.134502 730.12425,84.994151 723.57454,87.333333 716.65057,87.333333 L 711.6915,87.333333 Z"/>
	<path d="M 761.41812,52.807016 761.41812,130 779.00876,130 779.00876,101.36842 789.58186,101.36842 C 804.64619,101.36842 815.96783,92.479532 815.96783,76.573098 815.96783,60.573098 804.64619,52.807016 789.58186,52.807016 L 761.41812,52.807016 Z M 779.00876,87.333333 779.00876,66.842104 783.96783,66.842104 C 790.8918,66.842104 797.44151,69.181285 797.44151,77.134502 797.44151,84.994151 790.8918,87.333333 783.96783,87.333333 L 779.00876,87.333333 Z"/>
	<path d="M 872.89912,52.807016 828.73538,52.807016 828.73538,130 872.89912,130 872.89912,114.5614 846.32602,114.5614 846.32602,99.029239 871.77632,99.029239 871.77632,83.590642 846.32602,83.590642 846.32602,68.245613 872.89912,68.245613 872.89912,52.807016 Z"/>
	<path d="M 888.01168,52.807016 888.01168,130 905.60233,130 905.60233,99.497075 929.18128,130 951.54385,130 924.97075,98.093567 C 934.42104,95.099415 940.78362,87.333333 940.78362,75.730993 940.78362,60.573098 929.92981,52.807016 915.61402,52.807016 L 888.01168,52.807016 Z M 905.60233,87.052631 905.60233,66.842104 907.66081,66.842104 C 914.30408,66.842104 922.2573,67.30994 922.2573,76.947367 922.2573,86.584795 914.30408,87.052631 907.66081,87.052631 L 905.60233,87.052631 Z"/>
	<path d="M 1004.712,52.807016 960.08041,52.807016 960.08041,130 977.67105,130 977.67105,99.029239 1002.6535,99.029239 1002.6535,83.590642 977.67105,83.590642 977.67105,68.245613 1004.712,68.245613 1004.712,52.807016 Z"/>
	<path d="M 1035.6681,52.807016 1018.0775,52.807016 1018.0775,130 1035.6681,130 1035.6681,52.807016 Z"/>
	<path d="M 1096.1155,52.807016 1051.9517,52.807016 1051.9517,130 1096.1155,130 1096.1155,114.5614 1069.5424,114.5614 1069.5424,99.029239 1094.9927,99.029239 1094.9927,83.590642 1069.5424,83.590642 1069.5424,68.245613 1096.1155,68.245613 1096.1155,52.807016 Z"/>
	<path d="M 1128.8188,52.807016 1111.2281,52.807016 1111.2281,130 1155.3919,130 1155.3919,114.5614 1128.8188,114.5614 1128.8188,52.807016 Z"/>
	<path d="M 1169.0424,52.807016 1169.0424,130 1191.405,130 C 1212.6447,130 1230.3289,113.90643 1230.3289,91.356724 1230.3289,68.900584 1212.5512,52.807016 1191.405,52.807016 L 1169.0424,52.807016 Z M 1186.633,114.2807 1186.633,68.526315 1189.3465,68.526315 C 1202.4459,68.526315 1211.3348,78.538011 1211.3348,91.450292 1211.2412,104.36257 1202.3523,114.2807 1189.3465,114.2807 L 1186.633,114.2807 Z"/>
	<path d="M 358.94024,278.07018 C 345.67709,278.07018 339.85253,268.80702 339.85253,261.01754 339.85253,253.29825 345.67709,244.03509 358.94024,244.03509 365.67709,244.03509 370.30867,247.61404 370.30867,247.61404 L 375.9227,236.38597 C 375.9227,236.38597 369.46656,231.05263 356.90516,231.05263 340.4841,231.05263 325.53674,244.52632 325.53674,261.1579 325.53674,277.7193 340.55428,291.05263 356.90516,291.05263 369.46656,291.05263 375.9227,285.7193 375.9227,285.7193 L 370.30867,274.49123 C 370.30867,274.49123 365.67709,278.07018 358.94024,278.07018 Z"/>
	<path d="M 399.23191,266.77193 417.89858,266.77193 417.89858,290 431.09156,290 431.09156,232.10526 417.89858,232.10526 417.89858,255.19298 399.23191,255.19298 399.23191,232.10526 386.03893,232.10526 386.03893,290 399.23191,290 399.23191,266.77193 Z"/>
	<path d="M 473.89639,232.10526 461.68586,232.10526 438.31744,290 452.49288,290 456.77358,278.42105 478.80867,278.42105 483.08937,290 497.26481,290 473.89639,232.10526 Z M 474.31744,266.84211 461.26481,266.84211 467.72095,250 467.8613,250 474.31744,266.84211 Z"/>
	<path d="M 504.4545,232.10526 504.4545,290 517.64748,290 517.64748,267.12281 535.33169,290 552.10362,290 532.1738,266.07018 C 539.26152,263.82456 544.03345,258 544.03345,249.29825 544.03345,237.92983 535.8931,232.10526 525.15625,232.10526 L 504.4545,232.10526 Z M 517.64748,257.78947 517.64748,242.63158 519.19134,242.63158 C 524.1738,242.63158 530.13871,242.98246 530.13871,250.21053 530.13871,257.4386 524.1738,257.78947 519.19134,257.78947 L 517.64748,257.78947 Z"/>
	<path d="M 572.94901,232.10526 559.75603,232.10526 559.75603,290 592.87884,290 592.87884,278.42105 572.94901,278.42105 572.94901,232.10526 Z"/>
	<path d="M 637.48958,232.10526 604.36678,232.10526 604.36678,290 637.48958,290 637.48958,278.42105 617.55976,278.42105 617.55976,266.77193 636.64748,266.77193 636.64748,255.19298 617.55976,255.19298 617.55976,243.68421 637.48958,243.68421 637.48958,232.10526 Z"/>
	<path d="M 671.40736,231.05263 C 662.07402,231.05263 652.53016,237.92983 652.53016,248.73684 652.53016,254.77193 656.60034,260.17544 663.54771,263.61404 670.4249,267.05263 676.60034,268.94737 676.60034,273.15789 676.60034,278.5614 671.12665,278.84211 668.24946,278.84211 661.79332,278.84211 654.07402,272.31579 654.07402,272.31579 L 647.47753,283.40351 C 647.47753,283.40351 655.68806,291.05263 669.23192,291.05263 680.53016,291.05263 691.05648,286.21053 691.05648,272.38597 691.05648,264.80702 683.96876,259.33333 677.51262,256.59649 670.91613,253.78947 665.44244,251.47368 665.44244,248.24561 665.44244,245.08772 667.82841,243.05263 672.31964,243.05263 678.28455,243.05263 684.03893,247.05263 684.03893,247.05263 L 689.37227,236.52632 C 689.37227,236.52632 681.93367,231.05263 671.40736,231.05263 Z"/>
	<path d="M 726.41173,232.10526 726.41173,290 743.18366,290 C 759.11348,290 772.37664,277.92982 772.37664,261.01754 772.37664,244.17544 759.04331,232.10526 743.18366,232.10526 L 726.41173,232.10526 Z M 739.60471,278.21053 739.60471,243.89474 741.6398,243.89474 C 751.46436,243.89474 758.13103,251.40351 758.13103,261.08772 758.06085,270.77193 751.39419,278.21053 741.6398,278.21053 L 739.60471,278.21053 Z"/>
	<path d="M 796.41392,232.10526 783.22093,232.10526 783.22093,290 796.41392,290 796.41392,232.10526 Z"/>
	<path d="M 838.49069,278.07018 C 825.22753,278.07018 819.40297,268.80702 819.40297,261.01754 819.40297,253.29825 825.22753,244.03509 838.49069,244.03509 845.22753,244.03509 849.85911,247.61404 849.85911,247.61404 L 855.47315,236.38597 C 855.47315,236.38597 849.01701,231.05263 836.4556,231.05263 820.03455,231.05263 805.08718,244.52632 805.08718,261.1579 805.08718,277.7193 820.10472,291.05263 836.4556,291.05263 849.01701,291.05263 855.47315,285.7193 855.47315,285.7193 L 849.85911,274.49123 C 849.85911,274.49123 845.22753,278.07018 838.49069,278.07018 Z"/>
	<path d="M 918.2911,290 891.34373,259.54386 914.64197,232.10526 898.64197,232.10526 878.78232,255.75439 878.78232,232.10526 865.58934,232.10526 865.58934,290 878.78232,290 878.78232,265.4386 900.11566,290 918.2911,290 Z"/>
	<path d="M 958.94793,232.10526 925.82512,232.10526 925.82512,290 958.94793,290 958.94793,278.42105 939.0181,278.42105 939.0181,266.77193 958.10582,266.77193 958.10582,255.19298 939.0181,255.19298 939.0181,243.68421 958.94793,243.68421 958.94793,232.10526 Z"/>
	<path d="M 984.72532,254.07018 984.86567,254.07018 1007.8832,290 1021.0762,290 1021.0762,232.10526 1007.8832,232.10526 1007.8832,268.03509 1007.7429,268.03509 984.72532,232.10526 971.53234,232.10526 971.53234,290 984.72532,290 984.72532,254.07018 Z"/>
	<path d="M 1054.4721,231.05263 C 1045.1387,231.05263 1035.5949,237.92983 1035.5949,248.73684 1035.5949,254.77193 1039.665,260.17544 1046.6124,263.61404 1053.4896,267.05263 1059.665,268.94737 1059.665,273.15789 1059.665,278.5614 1054.1914,278.84211 1051.3142,278.84211 1044.858,278.84211 1037.1387,272.31579 1037.1387,272.31579 L 1030.5422,283.40351 C 1030.5422,283.40351 1038.7528,291.05263 1052.2966,291.05263 1063.5949,291.05263 1074.1212,286.21053 1074.1212,272.38597 1074.1212,264.80702 1067.0335,259.33333 1060.5773,256.59649 1053.9808,253.78947 1048.5071,251.47368 1048.5071,248.24561 1048.5071,245.08772 1050.8931,243.05263 1055.3843,243.05263 1061.3492,243.05263 1067.1036,247.05263 1067.1036,247.05263 L 1072.437,236.52632 C 1072.437,236.52632 1064.9984,231.05263 1054.4721,231.05263 Z"/>
</svg>
